<mxfile host="app.diagrams.net" modified="2023-06-11T16:56:06.825Z" agent="Mozilla/5.0 (Windows NT 10.0; Win64; x64) AppleWebKit/537.36 (KHTML, like Gecko) Chrome/114.0.0.0 Safari/537.36" etag="k4MdAJtdSm1otPEKvfdY" version="21.3.7" type="device">
  <diagram name="Page-1" id="T8hQwO85AfcDrDa6B6UH">
    <mxGraphModel dx="2625" dy="1288" grid="1" gridSize="10" guides="1" tooltips="1" connect="1" arrows="1" fold="1" page="1" pageScale="1" pageWidth="850" pageHeight="1100" math="0" shadow="0">
      <root>
        <mxCell id="0" />
        <mxCell id="1" parent="0" />
        <mxCell id="SdT0nF-kyyPHbocLw20B-12" style="edgeStyle=orthogonalEdgeStyle;rounded=0;orthogonalLoop=1;jettySize=auto;html=1;exitX=0.5;exitY=1;exitDx=0;exitDy=0;exitPerimeter=0;entryX=1;entryY=0.5;entryDx=0;entryDy=0;" edge="1" parent="1" source="SdT0nF-kyyPHbocLw20B-5" target="SdT0nF-kyyPHbocLw20B-8">
          <mxGeometry relative="1" as="geometry" />
        </mxCell>
        <mxCell id="SdT0nF-kyyPHbocLw20B-44" style="edgeStyle=orthogonalEdgeStyle;rounded=0;orthogonalLoop=1;jettySize=auto;html=1;exitX=0.5;exitY=1;exitDx=0;exitDy=0;exitPerimeter=0;" edge="1" parent="1" source="SdT0nF-kyyPHbocLw20B-5">
          <mxGeometry relative="1" as="geometry">
            <mxPoint x="425.33333333333326" y="70.66666666666663" as="targetPoint" />
          </mxGeometry>
        </mxCell>
        <mxCell id="SdT0nF-kyyPHbocLw20B-49" style="edgeStyle=orthogonalEdgeStyle;rounded=0;orthogonalLoop=1;jettySize=auto;html=1;exitX=0.5;exitY=1;exitDx=0;exitDy=0;exitPerimeter=0;entryX=0.5;entryY=0;entryDx=0;entryDy=0;" edge="1" parent="1" source="SdT0nF-kyyPHbocLw20B-5" target="SdT0nF-kyyPHbocLw20B-46">
          <mxGeometry relative="1" as="geometry" />
        </mxCell>
        <mxCell id="SdT0nF-kyyPHbocLw20B-5" value="Start" style="strokeWidth=2;html=1;shape=mxgraph.flowchart.terminator;whiteSpace=wrap;" vertex="1" parent="1">
          <mxGeometry x="362" y="10" width="126" height="60" as="geometry" />
        </mxCell>
        <mxCell id="SdT0nF-kyyPHbocLw20B-13" style="edgeStyle=orthogonalEdgeStyle;rounded=0;orthogonalLoop=1;jettySize=auto;html=1;exitX=0;exitY=0.5;exitDx=0;exitDy=0;entryX=0;entryY=0.5;entryDx=0;entryDy=0;" edge="1" parent="1" source="SdT0nF-kyyPHbocLw20B-7" target="SdT0nF-kyyPHbocLw20B-8">
          <mxGeometry relative="1" as="geometry">
            <mxPoint x="20" y="50" as="targetPoint" />
            <Array as="points">
              <mxPoint x="21" y="350" />
              <mxPoint x="21" y="120" />
            </Array>
          </mxGeometry>
        </mxCell>
        <mxCell id="SdT0nF-kyyPHbocLw20B-14" value="NO" style="edgeLabel;html=1;align=center;verticalAlign=middle;resizable=0;points=[];" vertex="1" connectable="0" parent="SdT0nF-kyyPHbocLw20B-13">
          <mxGeometry x="-0.8091" y="3" relative="1" as="geometry">
            <mxPoint as="offset" />
          </mxGeometry>
        </mxCell>
        <mxCell id="SdT0nF-kyyPHbocLw20B-15" value="Yes" style="edgeStyle=orthogonalEdgeStyle;rounded=0;orthogonalLoop=1;jettySize=auto;html=1;exitX=0.5;exitY=1;exitDx=0;exitDy=0;entryX=0.43;entryY=-0.037;entryDx=0;entryDy=0;entryPerimeter=0;" edge="1" parent="1" source="SdT0nF-kyyPHbocLw20B-7" target="SdT0nF-kyyPHbocLw20B-18">
          <mxGeometry relative="1" as="geometry">
            <mxPoint x="213" y="450" as="targetPoint" />
          </mxGeometry>
        </mxCell>
        <mxCell id="SdT0nF-kyyPHbocLw20B-7" value="Check If there is motin" style="rhombus;whiteSpace=wrap;html=1;" vertex="1" parent="1">
          <mxGeometry x="60" y="310" width="110" height="80" as="geometry" />
        </mxCell>
        <mxCell id="SdT0nF-kyyPHbocLw20B-10" style="edgeStyle=orthogonalEdgeStyle;rounded=0;orthogonalLoop=1;jettySize=auto;html=1;exitX=0.5;exitY=1;exitDx=0;exitDy=0;entryX=0.5;entryY=0;entryDx=0;entryDy=0;" edge="1" parent="1" source="SdT0nF-kyyPHbocLw20B-8" target="SdT0nF-kyyPHbocLw20B-9">
          <mxGeometry relative="1" as="geometry" />
        </mxCell>
        <mxCell id="SdT0nF-kyyPHbocLw20B-8" value="Motion sensor working" style="rounded=0;whiteSpace=wrap;html=1;" vertex="1" parent="1">
          <mxGeometry x="60" y="80" width="120" height="80" as="geometry" />
        </mxCell>
        <mxCell id="SdT0nF-kyyPHbocLw20B-11" style="edgeStyle=orthogonalEdgeStyle;rounded=0;orthogonalLoop=1;jettySize=auto;html=1;exitX=0.5;exitY=1;exitDx=0;exitDy=0;entryX=0.5;entryY=0;entryDx=0;entryDy=0;" edge="1" parent="1" source="SdT0nF-kyyPHbocLw20B-9" target="SdT0nF-kyyPHbocLw20B-7">
          <mxGeometry relative="1" as="geometry" />
        </mxCell>
        <mxCell id="SdT0nF-kyyPHbocLw20B-9" value="Get Data from sensor" style="shape=parallelogram;perimeter=parallelogramPerimeter;whiteSpace=wrap;html=1;fixedSize=1;" vertex="1" parent="1">
          <mxGeometry x="60" y="200" width="120" height="80" as="geometry" />
        </mxCell>
        <mxCell id="SdT0nF-kyyPHbocLw20B-19" style="edgeStyle=orthogonalEdgeStyle;rounded=0;orthogonalLoop=1;jettySize=auto;html=1;exitX=0.25;exitY=1;exitDx=0;exitDy=0;entryX=0.5;entryY=0;entryDx=0;entryDy=0;entryPerimeter=0;" edge="1" parent="1" source="SdT0nF-kyyPHbocLw20B-18" target="SdT0nF-kyyPHbocLw20B-20">
          <mxGeometry relative="1" as="geometry">
            <mxPoint x="80" y="590" as="targetPoint" />
          </mxGeometry>
        </mxCell>
        <mxCell id="SdT0nF-kyyPHbocLw20B-22" style="edgeStyle=orthogonalEdgeStyle;rounded=0;orthogonalLoop=1;jettySize=auto;html=1;exitX=0.5;exitY=1;exitDx=0;exitDy=0;entryX=0.5;entryY=0;entryDx=0;entryDy=0;entryPerimeter=0;" edge="1" parent="1" source="SdT0nF-kyyPHbocLw20B-18" target="SdT0nF-kyyPHbocLw20B-21">
          <mxGeometry relative="1" as="geometry" />
        </mxCell>
        <mxCell id="SdT0nF-kyyPHbocLw20B-24" style="edgeStyle=orthogonalEdgeStyle;rounded=0;orthogonalLoop=1;jettySize=auto;html=1;exitX=0.75;exitY=1;exitDx=0;exitDy=0;entryX=0.5;entryY=0;entryDx=0;entryDy=0;entryPerimeter=0;" edge="1" parent="1" source="SdT0nF-kyyPHbocLw20B-18" target="SdT0nF-kyyPHbocLw20B-23">
          <mxGeometry relative="1" as="geometry" />
        </mxCell>
        <mxCell id="SdT0nF-kyyPHbocLw20B-18" value="Give Signals to other parts to turn on" style="rounded=0;whiteSpace=wrap;html=1;" vertex="1" parent="1">
          <mxGeometry x="160" y="450" width="120" height="80" as="geometry" />
        </mxCell>
        <mxCell id="SdT0nF-kyyPHbocLw20B-26" style="edgeStyle=orthogonalEdgeStyle;rounded=0;orthogonalLoop=1;jettySize=auto;html=1;exitX=0.5;exitY=1;exitDx=0;exitDy=0;exitPerimeter=0;entryX=0;entryY=0.5;entryDx=0;entryDy=0;" edge="1" parent="1" source="SdT0nF-kyyPHbocLw20B-20" target="SdT0nF-kyyPHbocLw20B-25">
          <mxGeometry relative="1" as="geometry" />
        </mxCell>
        <mxCell id="SdT0nF-kyyPHbocLw20B-20" value="Start Pulse generator&lt;br&gt;to see heart beams&amp;nbsp;" style="strokeWidth=2;html=1;shape=mxgraph.flowchart.terminator;whiteSpace=wrap;" vertex="1" parent="1">
          <mxGeometry x="20" y="590" width="126" height="60" as="geometry" />
        </mxCell>
        <mxCell id="SdT0nF-kyyPHbocLw20B-27" style="edgeStyle=orthogonalEdgeStyle;rounded=0;orthogonalLoop=1;jettySize=auto;html=1;exitX=0.5;exitY=1;exitDx=0;exitDy=0;exitPerimeter=0;entryX=0.5;entryY=0;entryDx=0;entryDy=0;" edge="1" parent="1" source="SdT0nF-kyyPHbocLw20B-21" target="SdT0nF-kyyPHbocLw20B-25">
          <mxGeometry relative="1" as="geometry" />
        </mxCell>
        <mxCell id="SdT0nF-kyyPHbocLw20B-21" value="Start RobotRFG to culculate calories/steps" style="strokeWidth=2;html=1;shape=mxgraph.flowchart.terminator;whiteSpace=wrap;" vertex="1" parent="1">
          <mxGeometry x="160" y="590" width="126" height="60" as="geometry" />
        </mxCell>
        <mxCell id="SdT0nF-kyyPHbocLw20B-28" style="edgeStyle=orthogonalEdgeStyle;rounded=0;orthogonalLoop=1;jettySize=auto;html=1;exitX=0.5;exitY=1;exitDx=0;exitDy=0;exitPerimeter=0;entryX=1;entryY=0.5;entryDx=0;entryDy=0;" edge="1" parent="1" source="SdT0nF-kyyPHbocLw20B-23" target="SdT0nF-kyyPHbocLw20B-25">
          <mxGeometry relative="1" as="geometry" />
        </mxCell>
        <mxCell id="SdT0nF-kyyPHbocLw20B-23" value="Start LSM 350 Temp detector" style="strokeWidth=2;html=1;shape=mxgraph.flowchart.terminator;whiteSpace=wrap;" vertex="1" parent="1">
          <mxGeometry x="310" y="590" width="126" height="60" as="geometry" />
        </mxCell>
        <mxCell id="SdT0nF-kyyPHbocLw20B-29" style="edgeStyle=orthogonalEdgeStyle;rounded=0;orthogonalLoop=1;jettySize=auto;html=1;exitX=0.5;exitY=1;exitDx=0;exitDy=0;" edge="1" parent="1" source="SdT0nF-kyyPHbocLw20B-25">
          <mxGeometry relative="1" as="geometry">
            <mxPoint x="223" y="860" as="targetPoint" />
          </mxGeometry>
        </mxCell>
        <mxCell id="SdT0nF-kyyPHbocLw20B-33" style="edgeStyle=orthogonalEdgeStyle;rounded=0;orthogonalLoop=1;jettySize=auto;html=1;exitX=0.25;exitY=1;exitDx=0;exitDy=0;entryX=0.5;entryY=0;entryDx=0;entryDy=0;" edge="1" parent="1" source="SdT0nF-kyyPHbocLw20B-25" target="SdT0nF-kyyPHbocLw20B-32">
          <mxGeometry relative="1" as="geometry" />
        </mxCell>
        <mxCell id="SdT0nF-kyyPHbocLw20B-25" value="Micropprocessor" style="shape=process;whiteSpace=wrap;html=1;backgroundOutline=1;" vertex="1" parent="1">
          <mxGeometry x="163" y="740" width="120" height="80" as="geometry" />
        </mxCell>
        <mxCell id="SdT0nF-kyyPHbocLw20B-30" value="Store Data in Memory" style="shape=dataStorage;whiteSpace=wrap;html=1;fixedSize=1;" vertex="1" parent="1">
          <mxGeometry x="173" y="860" width="100" height="80" as="geometry" />
        </mxCell>
        <mxCell id="SdT0nF-kyyPHbocLw20B-35" style="edgeStyle=orthogonalEdgeStyle;rounded=0;orthogonalLoop=1;jettySize=auto;html=1;exitX=0.5;exitY=1;exitDx=0;exitDy=0;entryX=0;entryY=0.5;entryDx=0;entryDy=0;entryPerimeter=0;" edge="1" parent="1" source="SdT0nF-kyyPHbocLw20B-32" target="SdT0nF-kyyPHbocLw20B-34">
          <mxGeometry relative="1" as="geometry" />
        </mxCell>
        <mxCell id="SdT0nF-kyyPHbocLw20B-37" style="edgeStyle=orthogonalEdgeStyle;rounded=0;orthogonalLoop=1;jettySize=auto;html=1;exitX=0.25;exitY=1;exitDx=0;exitDy=0;entryX=0;entryY=0.5;entryDx=0;entryDy=0;entryPerimeter=0;" edge="1" parent="1" source="SdT0nF-kyyPHbocLw20B-32" target="SdT0nF-kyyPHbocLw20B-36">
          <mxGeometry relative="1" as="geometry" />
        </mxCell>
        <mxCell id="SdT0nF-kyyPHbocLw20B-42" style="edgeStyle=orthogonalEdgeStyle;rounded=0;orthogonalLoop=1;jettySize=auto;html=1;exitX=0.75;exitY=1;exitDx=0;exitDy=0;entryX=0;entryY=0.5;entryDx=0;entryDy=0;entryPerimeter=0;" edge="1" parent="1" source="SdT0nF-kyyPHbocLw20B-32" target="SdT0nF-kyyPHbocLw20B-39">
          <mxGeometry relative="1" as="geometry" />
        </mxCell>
        <mxCell id="SdT0nF-kyyPHbocLw20B-32" value="Wait 200ms" style="rounded=0;whiteSpace=wrap;html=1;" vertex="1" parent="1">
          <mxGeometry x="23" y="860" width="120" height="80" as="geometry" />
        </mxCell>
        <mxCell id="SdT0nF-kyyPHbocLw20B-34" value="Display on 7segment" style="strokeWidth=2;html=1;shape=mxgraph.flowchart.display;whiteSpace=wrap;" vertex="1" parent="1">
          <mxGeometry x="173" y="950" width="97" height="50" as="geometry" />
        </mxCell>
        <mxCell id="SdT0nF-kyyPHbocLw20B-36" value="Display the icon" style="strokeWidth=2;html=1;shape=mxgraph.flowchart.display;whiteSpace=wrap;" vertex="1" parent="1">
          <mxGeometry x="176.5" y="1010" width="90" height="50" as="geometry" />
        </mxCell>
        <mxCell id="SdT0nF-kyyPHbocLw20B-43" style="edgeStyle=orthogonalEdgeStyle;rounded=0;orthogonalLoop=1;jettySize=auto;html=1;exitX=1;exitY=0.5;exitDx=0;exitDy=0;exitPerimeter=0;entryX=1;entryY=0.75;entryDx=0;entryDy=0;" edge="1" parent="1" source="SdT0nF-kyyPHbocLw20B-39" target="SdT0nF-kyyPHbocLw20B-8">
          <mxGeometry relative="1" as="geometry" />
        </mxCell>
        <mxCell id="SdT0nF-kyyPHbocLw20B-39" value="Turn off all detectors" style="strokeWidth=2;html=1;shape=mxgraph.flowchart.terminator;whiteSpace=wrap;" vertex="1" parent="1">
          <mxGeometry x="330" y="970" width="126" height="60" as="geometry" />
        </mxCell>
        <mxCell id="SdT0nF-kyyPHbocLw20B-47" style="edgeStyle=orthogonalEdgeStyle;rounded=0;orthogonalLoop=1;jettySize=auto;html=1;exitX=0.5;exitY=1;exitDx=0;exitDy=0;" edge="1" parent="1" source="SdT0nF-kyyPHbocLw20B-45" target="SdT0nF-kyyPHbocLw20B-48">
          <mxGeometry relative="1" as="geometry">
            <mxPoint x="614.6666666666667" y="350" as="targetPoint" />
          </mxGeometry>
        </mxCell>
        <mxCell id="SdT0nF-kyyPHbocLw20B-51" value="Button is clicked&lt;br&gt;Yes want to edit time" style="edgeLabel;html=1;align=center;verticalAlign=middle;resizable=0;points=[];" vertex="1" connectable="0" parent="SdT0nF-kyyPHbocLw20B-47">
          <mxGeometry x="-0.2773" y="1" relative="1" as="geometry">
            <mxPoint as="offset" />
          </mxGeometry>
        </mxCell>
        <mxCell id="SdT0nF-kyyPHbocLw20B-74" style="edgeStyle=orthogonalEdgeStyle;rounded=0;orthogonalLoop=1;jettySize=auto;html=1;exitX=1;exitY=0.5;exitDx=0;exitDy=0;" edge="1" parent="1" source="SdT0nF-kyyPHbocLw20B-45" target="SdT0nF-kyyPHbocLw20B-76">
          <mxGeometry relative="1" as="geometry">
            <mxPoint x="760" y="320" as="targetPoint" />
          </mxGeometry>
        </mxCell>
        <mxCell id="SdT0nF-kyyPHbocLw20B-75" value="NO" style="edgeLabel;html=1;align=center;verticalAlign=middle;resizable=0;points=[];" vertex="1" connectable="0" parent="SdT0nF-kyyPHbocLw20B-74">
          <mxGeometry x="-0.0076" relative="1" as="geometry">
            <mxPoint as="offset" />
          </mxGeometry>
        </mxCell>
        <mxCell id="SdT0nF-kyyPHbocLw20B-45" value="Want to update time/date" style="rhombus;whiteSpace=wrap;html=1;" vertex="1" parent="1">
          <mxGeometry x="560" y="230" width="110" height="80" as="geometry" />
        </mxCell>
        <mxCell id="SdT0nF-kyyPHbocLw20B-50" style="edgeStyle=orthogonalEdgeStyle;rounded=0;orthogonalLoop=1;jettySize=auto;html=1;exitX=0.5;exitY=1;exitDx=0;exitDy=0;entryX=0.5;entryY=0;entryDx=0;entryDy=0;" edge="1" parent="1" source="SdT0nF-kyyPHbocLw20B-46" target="SdT0nF-kyyPHbocLw20B-45">
          <mxGeometry relative="1" as="geometry" />
        </mxCell>
        <mxCell id="SdT0nF-kyyPHbocLw20B-46" value="Watch will be defult onspecific time" style="shape=parallelogram;perimeter=parallelogramPerimeter;whiteSpace=wrap;html=1;fixedSize=1;" vertex="1" parent="1">
          <mxGeometry x="555" y="100" width="120" height="80" as="geometry" />
        </mxCell>
        <mxCell id="SdT0nF-kyyPHbocLw20B-58" style="edgeStyle=orthogonalEdgeStyle;rounded=0;orthogonalLoop=1;jettySize=auto;html=1;exitX=0.5;exitY=1;exitDx=0;exitDy=0;entryX=0.5;entryY=0;entryDx=0;entryDy=0;" edge="1" parent="1" source="SdT0nF-kyyPHbocLw20B-48" target="SdT0nF-kyyPHbocLw20B-56">
          <mxGeometry relative="1" as="geometry" />
        </mxCell>
        <mxCell id="SdT0nF-kyyPHbocLw20B-48" value="zero all time and date to edit" style="rounded=0;whiteSpace=wrap;html=1;" vertex="1" parent="1">
          <mxGeometry x="554.9966666666668" y="380" width="120" height="80" as="geometry" />
        </mxCell>
        <mxCell id="SdT0nF-kyyPHbocLw20B-66" style="edgeStyle=orthogonalEdgeStyle;rounded=0;orthogonalLoop=1;jettySize=auto;html=1;exitX=0.5;exitY=1;exitDx=0;exitDy=0;exitPerimeter=0;entryX=0.5;entryY=0;entryDx=0;entryDy=0;" edge="1" parent="1" source="SdT0nF-kyyPHbocLw20B-54" target="SdT0nF-kyyPHbocLw20B-63">
          <mxGeometry relative="1" as="geometry" />
        </mxCell>
        <mxCell id="SdT0nF-kyyPHbocLw20B-54" value="Data is displayed while editted" style="strokeWidth=2;html=1;shape=mxgraph.flowchart.display;whiteSpace=wrap;" vertex="1" parent="1">
          <mxGeometry x="565" y="660" width="95" height="50" as="geometry" />
        </mxCell>
        <mxCell id="SdT0nF-kyyPHbocLw20B-64" style="edgeStyle=orthogonalEdgeStyle;rounded=0;orthogonalLoop=1;jettySize=auto;html=1;exitX=0.5;exitY=1;exitDx=0;exitDy=0;entryX=0.5;entryY=0;entryDx=0;entryDy=0;" edge="1" parent="1" source="SdT0nF-kyyPHbocLw20B-56" target="SdT0nF-kyyPHbocLw20B-61">
          <mxGeometry relative="1" as="geometry" />
        </mxCell>
        <mxCell id="SdT0nF-kyyPHbocLw20B-56" value="Start editing" style="whiteSpace=wrap;html=1;" vertex="1" parent="1">
          <mxGeometry x="570" y="490" width="90" height="40" as="geometry" />
        </mxCell>
        <mxCell id="SdT0nF-kyyPHbocLw20B-65" style="edgeStyle=orthogonalEdgeStyle;rounded=0;orthogonalLoop=1;jettySize=auto;html=1;exitX=0.5;exitY=1;exitDx=0;exitDy=0;entryX=0.5;entryY=0;entryDx=0;entryDy=0;entryPerimeter=0;" edge="1" parent="1" source="SdT0nF-kyyPHbocLw20B-61" target="SdT0nF-kyyPHbocLw20B-54">
          <mxGeometry relative="1" as="geometry" />
        </mxCell>
        <mxCell id="SdT0nF-kyyPHbocLw20B-61" value="Microppreccor" style="shape=process;whiteSpace=wrap;html=1;backgroundOutline=1;" vertex="1" parent="1">
          <mxGeometry x="559.9966666666668" y="550" width="120" height="80" as="geometry" />
        </mxCell>
        <mxCell id="SdT0nF-kyyPHbocLw20B-67" style="edgeStyle=orthogonalEdgeStyle;rounded=0;orthogonalLoop=1;jettySize=auto;html=1;exitX=0;exitY=0.5;exitDx=0;exitDy=0;entryX=0;entryY=0.5;entryDx=0;entryDy=0;" edge="1" parent="1" source="SdT0nF-kyyPHbocLw20B-63" target="SdT0nF-kyyPHbocLw20B-61">
          <mxGeometry relative="1" as="geometry" />
        </mxCell>
        <mxCell id="SdT0nF-kyyPHbocLw20B-68" value="NO" style="edgeLabel;html=1;align=center;verticalAlign=middle;resizable=0;points=[];" vertex="1" connectable="0" parent="SdT0nF-kyyPHbocLw20B-67">
          <mxGeometry x="0.2406" y="3" relative="1" as="geometry">
            <mxPoint as="offset" />
          </mxGeometry>
        </mxCell>
        <mxCell id="SdT0nF-kyyPHbocLw20B-69" style="edgeStyle=orthogonalEdgeStyle;rounded=0;orthogonalLoop=1;jettySize=auto;html=1;exitX=0;exitY=1;exitDx=0;exitDy=0;" edge="1" parent="1" source="SdT0nF-kyyPHbocLw20B-63" target="SdT0nF-kyyPHbocLw20B-71">
          <mxGeometry relative="1" as="geometry">
            <mxPoint x="520" y="850" as="targetPoint" />
          </mxGeometry>
        </mxCell>
        <mxCell id="SdT0nF-kyyPHbocLw20B-70" value="Yes" style="edgeLabel;html=1;align=center;verticalAlign=middle;resizable=0;points=[];" vertex="1" connectable="0" parent="SdT0nF-kyyPHbocLw20B-69">
          <mxGeometry x="0.2361" y="1" relative="1" as="geometry">
            <mxPoint as="offset" />
          </mxGeometry>
        </mxCell>
        <mxCell id="SdT0nF-kyyPHbocLw20B-72" style="edgeStyle=orthogonalEdgeStyle;rounded=0;orthogonalLoop=1;jettySize=auto;html=1;exitX=0;exitY=1;exitDx=0;exitDy=0;entryX=0;entryY=0.5;entryDx=0;entryDy=0;" edge="1" parent="1" source="SdT0nF-kyyPHbocLw20B-63" target="SdT0nF-kyyPHbocLw20B-45">
          <mxGeometry relative="1" as="geometry">
            <Array as="points">
              <mxPoint x="510" y="800" />
              <mxPoint x="510" y="525" />
              <mxPoint x="540" y="525" />
              <mxPoint x="540" y="270" />
            </Array>
          </mxGeometry>
        </mxCell>
        <mxCell id="SdT0nF-kyyPHbocLw20B-73" value="Yes" style="edgeLabel;html=1;align=center;verticalAlign=middle;resizable=0;points=[];" vertex="1" connectable="0" parent="SdT0nF-kyyPHbocLw20B-72">
          <mxGeometry x="-0.6288" y="2" relative="1" as="geometry">
            <mxPoint y="1" as="offset" />
          </mxGeometry>
        </mxCell>
        <mxCell id="SdT0nF-kyyPHbocLw20B-63" value="Finished editing" style="rhombus;whiteSpace=wrap;html=1;" vertex="1" parent="1">
          <mxGeometry x="559.9966666666668" y="740" width="110" height="80" as="geometry" />
        </mxCell>
        <mxCell id="SdT0nF-kyyPHbocLw20B-71" value="Store Time/Date editted" style="shape=dataStorage;whiteSpace=wrap;html=1;fixedSize=1;" vertex="1" parent="1">
          <mxGeometry x="488" y="860" width="100" height="80" as="geometry" />
        </mxCell>
        <mxCell id="SdT0nF-kyyPHbocLw20B-77" style="edgeStyle=orthogonalEdgeStyle;rounded=0;orthogonalLoop=1;jettySize=auto;html=1;exitX=0.5;exitY=1;exitDx=0;exitDy=0;" edge="1" parent="1" source="SdT0nF-kyyPHbocLw20B-76" target="SdT0nF-kyyPHbocLw20B-78">
          <mxGeometry relative="1" as="geometry">
            <mxPoint x="760" y="470" as="targetPoint" />
          </mxGeometry>
        </mxCell>
        <mxCell id="SdT0nF-kyyPHbocLw20B-76" value="Microppressor" style="shape=process;whiteSpace=wrap;html=1;backgroundOutline=1;" vertex="1" parent="1">
          <mxGeometry x="700" y="320" width="120" height="80" as="geometry" />
        </mxCell>
        <mxCell id="SdT0nF-kyyPHbocLw20B-79" style="edgeStyle=orthogonalEdgeStyle;rounded=0;orthogonalLoop=1;jettySize=auto;html=1;exitX=1;exitY=0.5;exitDx=0;exitDy=0;entryX=1;entryY=0;entryDx=0;entryDy=0;" edge="1" parent="1" source="SdT0nF-kyyPHbocLw20B-78" target="SdT0nF-kyyPHbocLw20B-45">
          <mxGeometry relative="1" as="geometry">
            <Array as="points">
              <mxPoint x="840" y="470" />
              <mxPoint x="840" y="190" />
              <mxPoint x="643" y="190" />
            </Array>
          </mxGeometry>
        </mxCell>
        <mxCell id="SdT0nF-kyyPHbocLw20B-78" value="500ms" style="rounded=0;whiteSpace=wrap;html=1;" vertex="1" parent="1">
          <mxGeometry x="700" y="430" width="120" height="80" as="geometry" />
        </mxCell>
      </root>
    </mxGraphModel>
  </diagram>
</mxfile>
